# xmcd
#
# Track frame offsets:
#	150
#	15401
#	31590
#	46496
#	58079
#	72595
#	85295
#	99766
#	115812
#	127801
#	142593
#	154417
#	168716
#
# Disc length: 2528 seconds
#
# Revision: 3
# Processed by: cddbd v1.5.1PL0 Copyright (c) Steve Scherf et al.
# Submitted via: EasyCDDAExtractor 6.0.0.1
#
DISCID=a009de0d
DTITLE=Agnetha Fältskog - My colouring book
DYEAR=2004
DGENRE=Pop
TTITLE0=My colouring book
TTITLE1=When you walk into the room
TTITLE2=If I thought you'd ever change your mind
TTITLE3=Sealed with a kiss
TTITLE4=Love me with all your heart
TTITLE5=Fly me to the moon
TTITLE6=Past, present and future
TTITLE7=A fool am I
TTITLE8=I can't reach your heart
TTITLE9=Sometimes when I'm dreaming
TTITLE10=The end of the world
TTITLE11=Remember me
TTITLE12=What now my love
EXTD=YEAR: 2004
EXTT0=
EXTT1=
EXTT2=
EXTT3=
EXTT4=
EXTT5=
EXTT6=
EXTT7=
EXTT8=
EXTT9=
EXTT10=
EXTT11=
EXTT12=
PLAYORDER=
